#!OML:ASF H:\LiuWeirdWalks\Patient Classification 1\Patient 1\Session 1\male.ASF
:FULLY-SPECIFIED
:DEGREES
268
root -1.23879 17.7839 -24.2305 4.18338 3.28151 -3.94745
lowerback 5.68619 0.26695 3.88151
upperback -0.241931 0.738142 3.3858
thorax -3.43973 0.328431 1.25705
lowerneck -18.1377 2.47617 11.972
upperneck 18.218 2.8962 -12.819
head 9.06288 0.834122 -6.09591
rclavicle -2.18663e-015 -4.77083e-015
rhumerus -30.3972 -10.1366 -73.5283
rradius 23.256
rwrist -1.83288
rhand -16.1681 -2.04971
rfingers 7.12502
rthumb 10.038 -31.7903
lclavicle -2.18663e-015 -4.77083e-015
lhumerus -34.7985 9.24814 82.7618
lradius 26.7042
lwrist 5.12739
lhand -12.3798 2.19931
lfingers 7.12502
lthumb 13.691 31.729
rfemur 2.43159 0.521349 26.7919
rtibia 18.9045
rfoot -16.2005 -24.9651
rtoes -3.43235
lfemur -36.2764 3.05039 -10.8776
ltibia 35.8323
lfoot -7.4771 13.6061
ltoes -17.7368
269
root -1.22916 17.7807 -24.1552 4.27048 3.24555 -4.02882
lowerback 5.64253 0.294966 3.93556
upperback -0.254665 0.777949 3.41422
thorax -3.42792 0.347571 1.2531
lowerneck -18.2753 2.57749 12.1607
upperneck 18.2561 3.02053 -13.0345
head 9.12559 0.879609 -6.19479
rclavicle -2.5842e-015 2.78299e-014
rhumerus -30.3399 -9.9141 -73.6209
rradius 23.3233
rwrist -1.94364
rhand -16.141 -1.97136
rfingers 7.12502
rthumb 10.0641 -31.7107
lclavicle -2.5842e-015 2.78299e-014
lhumerus -34.8882 9.3923 82.6676
lradius 26.5607
lwrist 4.98911
lhand -12.3519 2.22287
lfingers 7.12502
lthumb 13.7179 31.7507
rfemur 2.89036 0.560627 26.8771
rtibia 18.3154
rfoot -16.0237 -25.0182
rtoes -3.54001
lfemur -36.4309 2.91954 -10.8617
ltibia 34.472
lfoot -7.45644 13.817
ltoes -17.5695
270
root -1.2188 17.7773 -24.0781 4.35602 3.19875 -4.10476
lowerback 5.60237 0.328486 3.96853
upperback -0.256061 0.823359 3.44573
thorax -3.40657 0.370086 1.26368
lowerneck -18.3712 2.6346 12.2952
upperneck 18.2313 3.09237 -13.2265
head 9.15076 0.899987 -6.2796
rclavicle 1.59028e-015 3.26007e-014
rhumerus -30.2478 -9.72438 -73.7087
rradius 23.3719
rwrist -2.03312
rhand -16.1188 -1.90733
rfingers 7.12502
rthumb 10.0856 -31.6456
lclavicle 1.59028e-015 3.26007e-014
lhumerus -34.9483 9.54297 82.5867
lradius 26.4205
lwrist 4.85951
lhand -12.3275 2.27219
lfingers 7.12502
lthumb 13.7414 31.7984
rfemur 3.3658 0.586761 26.9475
rtibia 17.7095
rfoot -15.8336 -25.0474
rtoes -3.6759
lfemur -36.5731 2.77021 -10.8357
ltibia 33.1539
lfoot -7.39231 14.0523
ltoes -17.3632
271
root -1.20751 17.7733 -23.999 4.43414 3.13628 -4.1894
lowerback 5.56125 0.368436 4.00281
upperback -0.221704 0.87544 3.47928
thorax -3.34755 0.39659 1.27508
lowerneck -18.4678 2.62268 12.332
upperneck 18.1335 3.07676 -13.3645
head 9.13587 0.877692 -6.33601
rclavicle 1.98785e-015 1.82882e-014
rhumerus -30.074 -9.58207 -73.8047
rradius 23.3923
rwrist -2.11216
rhand -16.0995 -1.8678
rfingers 7.12502
rthumb 10.1041 -31.6052
lclavicle 1.98785e-015 1.82882e-014
lhumerus -34.9372 9.70522 82.5197
lradius 26.2819
lwrist 4.73805
lhand -12.2929 2.31688
lfingers 7.12502
lthumb 13.7747 31.8409
rfemur 3.86427 0.602296 27.0179
rtibia 17.0866
rfoot -15.6471 -25.0527
rtoes -3.82677
lfemur -36.7007 2.61263 -10.7848
ltibia 31.8865
lfoot -7.27096 14.3022
ltoes -17.1919
272
root -1.19553 17.7689 -23.9183 4.50872 3.09383 -4.26796
lowerback 5.53409 0.400967 4.02031
upperback -0.171843 0.916622 3.51474
thorax -3.28069 0.418194 1.29872
lowerneck -18.5435 2.56439 12.3007
upperneck 17.967 3.00281 -13.461
head 9.0832 0.827945 -6.36972
rclavicle 9.14409e-015 -4.77083e-015
rhumerus -29.8359 -9.49328 -73.8988
rradius 23.3684
rwrist -2.13736
rhand -16.0926 -1.81041
rfingers 7.12502
rthumb 10.1108 -31.5475
lclavicle 9.14409e-015 -4.77083e-015
lhumerus -34.8824 9.87709 82.4631
lradius 26.1384
lwrist 4.64431
lhand -12.2607 2.33643
lfingers 7.12502
lthumb 13.8057 31.8583
rfemur 4.38244 0.582964 27.0767
rtibia 16.4426
rfoot -15.4314 -25.0474
rtoes -4.03245
lfemur -36.8252 2.41742 -10.726
ltibia 30.6835
lfoot -7.11159 14.5507
ltoes -17.1139
273
root -1.1832 17.764 -23.8364 4.58121 3.06195 -4.35426
lowerback 5.51156 0.435145 4.03895
upperback -0.127434 0.960451 3.545
thorax -3.22199 0.440925 1.31618
lowerneck -18.5947 2.50159 12.2666
upperneck 17.7849 2.9176 -13.5259
head 9.01858 0.776784 -6.39177
rclavicle 2.78299e-015 2.54444e-014
rhumerus -29.6262 -9.44068 -73.9895
rradius 23.339
rwrist -2.13726
rhand -16.0946 -1.73743
rfingers 7.12502
rthumb 10.1089 -31.4746
lclavicle 2.78299e-015 2.54444e-014
lhumerus -34.8456 10.0145 82.4071
lradius 26.0258
lwrist 4.57156
lhand -12.2336 2.35058
lfingers 7.12502
lthumb 13.8319 31.8707
rfemur 4.92127 0.562002 27.1467
rtibia 15.7698
rfoot -15.1768 -25.0566
rtoes -4.2923
lfemur -36.9566 2.18966 -10.6384
ltibia 29.5615
lfoot -6.91695 14.7947
ltoes -17.0658
